<svg id="svg" version="1.1" xmlns="http://www.w3.org/2000/svg" xmlns:xlink="http://www.w3.org/1999/xlink" width="400" height="400" viewBox="0, 0, 400,400"><g id="svgg"><path id="path0" d="M98.669 28.665 C 98.521 28.812,98.380 34.348,98.355 40.967 C 98.302 54.735,97.857 65.825,97.204 69.600 C 96.909 71.309,96.659 84.828,96.477 109.039 C 96.238 140.849,96.118 145.976,95.602 146.597 C 94.978 147.350,94.161 172.942,94.667 175.900 L 94.889 177.200 107.183 177.200 C 118.968 177.200,119.506 177.167,120.200 176.400 C 120.812 175.724,121.432 175.600,124.212 175.600 L 127.500 175.600 127.750 176.850 C 127.888 177.538,128.000 179.057,128.000 180.226 C 128.000 181.396,128.180 182.464,128.400 182.600 C 128.654 182.757,128.800 187.842,128.800 196.537 L 128.800 210.228 127.600 210.936 L 126.400 211.645 126.400 221.423 C 126.400 226.800,126.445 231.238,126.500 231.285 C 126.555 231.332,132.180 231.467,139.000 231.585 L 151.400 231.800 151.400 234.600 L 151.400 237.400 135.300 237.400 C 122.687 237.400,119.200 237.508,119.200 237.900 C 119.200 238.292,122.651 238.400,135.120 238.400 C 146.969 238.400,151.163 238.523,151.520 238.880 C 152.279 239.639,151.861 280.309,150.978 291.685 C 150.674 295.588,149.059 295.275,168.200 295.016 C 176.780 294.900,198.155 294.708,215.700 294.591 C 233.245 294.473,247.602 294.337,247.606 294.289 C 247.609 294.240,247.708 282.050,247.827 267.200 C 247.946 252.350,248.106 239.885,248.184 239.500 C 248.310 238.875,247.944 238.800,244.787 238.800 L 241.249 238.800 240.995 237.100 C 240.856 236.165,240.800 234.590,240.871 233.600 L 241.000 231.800 244.482 231.600 C 246.477 231.485,248.176 231.186,248.462 230.900 C 248.838 230.522,251.876 230.400,260.880 230.400 L 272.800 230.400 272.800 224.944 C 272.800 220.768,272.670 219.384,272.244 219.044 C 271.048 218.088,271.126 211.721,272.344 210.834 C 273.569 209.942,273.629 208.693,272.856 200.121 C 272.291 193.861,272.157 184.272,272.577 180.300 L 272.905 177.200 289.008 177.200 L 305.111 177.200 305.333 175.900 C 305.839 172.942,305.022 147.350,304.398 146.597 C 303.882 145.976,303.762 140.849,303.523 109.039 C 303.362 87.634,303.077 71.194,302.843 69.800 C 302.622 68.480,302.330 66.860,302.195 66.200 C 302.060 65.540,301.826 56.810,301.675 46.800 L 301.400 28.600 262.488 28.498 C 231.560 28.417,223.542 28.499,223.409 28.898 C 223.317 29.174,223.179 52.890,223.102 81.600 L 222.963 133.800 219.311 134.004 C 214.311 134.284,214.164 134.800,219.084 134.800 C 221.965 134.800,223.229 134.647,223.549 134.261 C 223.871 133.873,224.025 121.751,224.098 90.961 L 224.200 48.200 227.173 48.081 C 229.529 47.987,230.219 48.091,230.493 48.581 C 230.995 49.478,239.401 49.495,239.745 48.600 C 239.947 48.074,243.723 48.000,270.387 48.000 L 300.800 48.000 300.804 57.100 C 300.808 66.364,301.285 74.358,302.027 77.600 C 302.279 78.704,302.553 93.156,302.736 115.000 C 302.982 144.375,303.133 150.775,303.595 151.600 C 304.025 152.368,304.195 155.177,304.327 163.700 L 304.497 174.800 288.749 174.806 C 279.526 174.810,272.751 174.969,272.400 175.191 C 271.753 175.600,271.585 201.617,272.194 207.115 C 272.581 210.608,272.359 210.797,267.851 210.813 L 264.200 210.825 265.231 211.596 C 266.089 212.237,266.274 212.720,266.334 214.483 C 266.444 217.692,266.314 217.779,261.163 217.937 L 256.696 218.074 256.914 220.487 C 257.035 221.815,257.033 223.519,256.910 224.275 L 256.687 225.649 252.543 225.525 L 248.398 225.400 248.399 228.086 L 248.400 230.771 244.500 230.886 L 240.600 231.000 240.800 244.800 C 240.910 252.390,241.000 265.530,241.000 274.000 L 241.000 289.400 213.217 289.503 L 185.434 289.606 184.556 288.503 L 183.677 287.400 171.738 287.200 L 159.800 287.000 159.515 276.800 C 159.358 271.190,159.246 258.738,159.267 249.130 L 159.303 231.659 155.552 231.416 C 153.488 231.282,146.220 231.043,139.400 230.886 L 127.000 230.600 127.105 221.400 C 127.239 209.567,125.766 210.800,139.764 210.800 C 147.690 210.800,150.770 210.670,151.120 210.320 C 151.807 209.633,151.807 183.967,151.120 183.280 C 150.770 182.930,147.682 182.800,139.728 182.800 L 128.815 182.800 128.609 181.900 C 128.495 181.405,128.357 179.650,128.301 178.000 L 128.200 175.000 111.851 174.895 L 95.503 174.791 95.674 163.695 C 95.805 155.177,95.975 152.368,96.405 151.600 C 96.867 150.775,97.018 144.375,97.264 115.000 C 97.447 93.156,97.721 78.704,97.973 77.600 C 98.715 74.358,99.192 66.364,99.196 57.100 L 99.200 48.000 102.400 48.000 L 105.600 48.000 105.600 51.553 C 105.600 55.685,105.490 55.589,110.200 55.589 C 114.813 55.589,114.800 55.599,114.800 52.153 L 114.800 49.200 118.580 49.200 C 121.532 49.200,122.434 49.068,122.698 48.597 C 122.994 48.068,126.254 48.007,149.418 48.097 L 175.800 48.200 176.000 91.000 C 176.110 114.540,176.346 134.025,176.524 134.300 C 176.750 134.649,178.136 134.798,181.124 134.794 C 184.032 134.790,185.208 134.664,184.800 134.400 C 184.470 134.187,182.625 134.009,180.700 134.006 L 177.200 134.000 177.143 126.100 C 177.111 121.755,176.976 98.040,176.843 73.400 L 176.600 28.600 137.769 28.498 C 116.411 28.442,98.816 28.517,98.669 28.665 M90.789 48.200 C 90.630 64.672,90.504 67.960,90.000 68.800 C 89.483 69.662,89.372 74.735,89.200 105.600 C 89.034 135.281,88.904 141.569,88.440 142.386 C 87.982 143.191,87.872 146.934,87.840 162.786 L 87.800 182.200 103.400 182.400 C 111.980 182.510,119.248 182.760,119.552 182.956 C 119.941 183.207,120.049 183.148,119.919 182.756 C 119.766 182.297,117.021 182.182,104.117 182.095 L 88.500 181.991 88.305 170.095 C 88.113 158.435,88.475 149.345,89.223 147.040 C 89.447 146.350,89.600 131.401,89.600 110.126 C 89.600 76.748,89.647 74.301,90.300 73.304 C 90.969 72.283,91.630 37.829,91.119 30.600 C 91.041 29.500,90.893 37.420,90.789 48.200 M308.962 50.418 C 308.997 70.485,309.056 72.322,309.700 73.304 C 310.353 74.301,310.400 76.748,310.400 110.126 C 310.400 132.012,310.550 146.330,310.786 147.040 C 311.532 149.284,311.889 158.323,311.695 170.100 L 311.499 182.000 295.333 182.000 L 279.167 182.000 279.437 186.700 C 279.667 190.703,280.148 193.242,280.579 192.734 C 280.720 192.567,280.132 186.631,279.812 185.000 C 279.330 182.542,278.840 182.619,296.285 182.400 L 312.200 182.200 312.160 162.786 C 312.128 146.934,312.018 143.191,311.560 142.386 C 311.096 141.569,310.966 135.281,310.800 105.600 C 310.628 74.833,310.516 69.659,310.004 68.800 C 309.506 67.966,309.367 64.547,309.166 48.200 L 308.924 28.600 308.962 50.418 M129.526 36.999 C 129.595 38.098,129.541 39.590,129.405 40.314 L 129.158 41.631 125.679 41.515 L 122.200 41.400 122.080 38.640 C 121.908 34.656,121.812 34.750,125.893 34.884 L 129.400 35.000 129.526 36.999 M246.726 36.999 C 246.795 38.098,246.741 39.590,246.605 40.314 L 246.358 41.631 242.879 41.515 L 239.400 41.400 239.280 38.640 C 239.108 34.656,239.012 34.750,243.093 34.884 L 246.600 35.000 246.726 36.999 M121.400 45.200 L 121.400 48.200 118.000 48.200 L 114.600 48.200 114.479 45.642 C 114.303 41.902,114.256 41.949,118.094 42.084 L 121.400 42.200 121.400 45.200 M238.600 45.200 L 238.600 48.200 235.200 48.200 L 231.800 48.200 231.679 45.642 C 231.503 41.902,231.456 41.949,235.294 42.084 L 238.600 42.200 238.600 45.200 M113.800 51.600 L 113.800 54.200 110.200 54.200 L 106.600 54.200 106.477 52.048 C 106.289 48.743,106.278 48.752,110.293 48.884 L 113.800 49.000 113.800 51.600 M183.697 101.400 C 183.650 115.700,183.744 127.608,183.906 127.862 C 184.172 128.280,184.161 100.703,183.889 82.600 C 183.830 78.640,183.743 87.100,183.697 101.400 M216.000 101.680 C 215.890 116.134,215.936 127.824,216.103 127.657 C 216.270 127.490,216.360 115.664,216.303 101.377 L 216.200 75.400 216.000 101.680 M287.467 162.667 C 286.872 163.261,287.189 167.893,287.862 168.451 C 288.844 169.265,296.288 169.223,296.809 168.400 C 297.231 167.731,297.334 164.015,296.957 163.033 C 296.705 162.376,288.089 162.044,287.467 162.667 M295.600 165.600 L 295.600 168.000 292.400 168.000 L 289.200 168.000 289.200 166.080 C 289.200 165.024,288.984 163.944,288.720 163.680 C 288.347 163.307,289.058 163.200,291.920 163.200 L 295.600 163.200 295.600 165.600 M280.960 204.600 C 280.961 207.900,281.022 209.197,281.098 207.482 C 281.173 205.767,281.172 203.067,281.097 201.482 C 281.021 199.897,280.959 201.300,280.960 204.600 M252.736 210.697 C 248.613 210.855,248.537 210.925,248.332 214.694 C 248.241 216.356,248.316 217.336,248.507 216.994 C 248.760 216.542,249.645 216.400,252.220 216.400 L 255.600 216.400 255.600 213.820 C 255.600 211.785,255.748 211.154,256.300 210.832 C 256.685 210.608,256.820 210.456,256.600 210.494 C 256.380 210.533,254.641 210.624,252.736 210.697 M118.979 224.000 C 118.979 231.150,119.033 234.075,119.099 230.500 C 119.166 226.925,119.166 221.075,119.099 217.500 C 119.033 213.925,118.979 216.850,118.979 224.000 M225.600 263.200 L 225.600 266.832 228.900 266.716 L 232.200 266.600 232.200 263.200 L 232.200 259.800 228.900 259.684 L 225.600 259.568 225.600 263.200 M158.883 267.300 C 158.928 267.355,159.063 271.990,159.183 277.600 L 159.400 287.800 171.000 288.015 C 177.380 288.134,182.645 288.269,182.700 288.315 C 182.755 288.362,182.800 289.840,182.800 291.600 L 182.800 294.800 167.249 294.800 L 151.698 294.800 151.879 281.500 C 151.979 274.185,152.131 267.975,152.218 267.700 C 152.351 267.276,158.555 266.904,158.883 267.300 M217.300 267.865 C 216.979 267.994,216.800 268.914,216.800 270.433 L 216.800 272.800 220.600 272.800 L 224.400 272.800 224.400 270.200 L 224.400 267.600 221.100 267.632 C 219.285 267.649,217.575 267.754,217.300 267.865 M208.400 277.416 L 208.400 280.832 211.700 280.716 L 215.000 280.600 215.116 277.300 L 215.232 274.000 211.816 274.000 L 208.400 274.000 208.400 277.416 " stroke="none" fill="#4d6fb6" fill-rule="evenodd"></path><path id="path1" d="M91.129 47.318 C 91.010 70.245,90.944 72.321,90.300 73.304 C 89.647 74.301,89.600 76.748,89.600 110.126 C 89.600 131.401,89.447 146.350,89.223 147.040 C 88.475 149.345,88.113 158.435,88.305 170.100 L 88.501 182.000 104.001 182.000 C 122.413 182.000,120.668 181.357,119.987 187.888 C 119.668 190.948,119.479 200.453,119.448 215.000 L 119.400 237.400 135.400 237.400 L 151.400 237.400 151.400 234.600 L 151.400 231.800 139.000 231.600 L 126.600 231.400 126.651 221.400 C 126.706 210.629,127.028 205.723,127.736 204.848 C 128.268 204.192,128.389 180.505,127.875 177.500 L 127.551 175.600 124.237 175.600 C 121.432 175.600,120.813 175.723,120.200 176.400 C 119.506 177.167,118.968 177.200,107.183 177.200 L 94.889 177.200 94.667 175.900 C 94.161 172.942,94.978 147.350,95.602 146.597 C 96.118 145.976,96.238 140.849,96.477 109.039 C 96.659 84.828,96.909 71.309,97.204 69.600 C 97.860 65.804,98.303 54.712,98.355 40.743 C 98.395 29.962,98.476 28.456,99.033 28.243 C 100.391 27.722,175.881 27.973,176.299 28.500 C 176.555 28.822,176.772 47.605,176.909 81.327 C 177.025 110.107,177.224 133.758,177.352 133.885 C 177.738 134.271,211.410 134.474,217.381 134.125 L 222.963 133.800 223.121 81.400 C 223.226 46.463,223.415 28.833,223.688 28.500 C 224.120 27.973,299.609 27.722,300.967 28.243 C 301.524 28.456,301.605 29.962,301.645 40.743 C 301.697 54.712,302.140 65.804,302.796 69.600 C 303.091 71.309,303.341 84.828,303.523 109.039 C 303.762 140.849,303.882 145.976,304.398 146.597 C 305.022 147.350,305.839 172.942,305.333 175.900 L 305.111 177.200 289.015 177.200 L 272.920 177.200 272.660 180.861 C 272.274 186.304,272.350 196.400,272.789 198.000 C 273.218 199.562,273.355 205.715,273.294 220.684 L 273.253 230.767 260.927 230.961 C 254.147 231.067,246.890 231.300,244.800 231.477 L 241.000 231.800 240.871 233.600 C 240.800 234.590,240.858 236.177,241.000 237.128 L 241.257 238.855 244.929 238.605 C 246.948 238.468,255.800 238.230,264.600 238.078 L 280.600 237.800 280.600 215.361 C 280.600 199.299,280.472 192.763,280.149 192.361 C 279.900 192.053,279.570 189.595,279.414 186.900 L 279.130 182.000 295.315 182.000 L 311.499 182.000 311.695 170.100 C 311.889 158.323,311.532 149.284,310.786 147.040 C 310.550 146.330,310.400 132.012,310.400 110.126 C 310.400 76.748,310.353 74.301,309.700 73.304 C 309.056 72.321,308.990 70.245,308.871 47.318 L 308.741 22.400 262.319 22.400 L 215.897 22.400 216.196 74.537 C 216.360 103.212,216.371 127.062,216.220 127.537 L 215.946 128.400 200.000 128.400 L 184.054 128.400 183.780 127.537 C 183.629 127.062,183.640 103.212,183.804 74.537 L 184.103 22.400 137.681 22.400 L 91.259 22.400 91.129 47.318 M122.174 35.324 C 122.057 35.629,122.015 37.122,122.080 38.640 L 122.200 41.400 125.679 41.515 L 129.158 41.631 129.405 40.314 C 129.541 39.590,129.595 38.098,129.526 36.999 L 129.400 35.000 125.893 34.884 C 123.190 34.795,122.338 34.896,122.174 35.324 M239.374 35.324 C 239.257 35.629,239.215 37.122,239.280 38.640 L 239.400 41.400 242.879 41.515 L 246.358 41.631 246.605 40.314 C 246.741 39.590,246.795 38.098,246.726 36.999 L 246.600 35.000 243.093 34.884 C 240.390 34.795,239.538 34.896,239.374 35.324 M114.573 42.526 C 114.455 42.833,114.413 44.235,114.479 45.642 L 114.600 48.200 118.000 48.200 L 121.400 48.200 121.400 45.200 L 121.400 42.200 118.094 42.084 C 115.552 41.994,114.738 42.097,114.573 42.526 M231.773 42.526 C 231.655 42.833,231.613 44.235,231.679 45.642 L 231.800 48.200 235.200 48.200 L 238.600 48.200 238.600 45.200 L 238.600 42.200 235.294 42.084 C 232.752 41.994,231.938 42.097,231.773 42.526 M106.571 49.332 C 106.452 49.642,106.410 50.864,106.477 52.048 L 106.600 54.200 110.200 54.200 L 113.800 54.200 113.800 51.600 L 113.800 49.000 110.293 48.884 C 107.567 48.794,106.739 48.894,106.571 49.332 M288.720 163.680 C 288.984 163.944,289.200 165.024,289.200 166.080 L 289.200 168.000 292.400 168.000 L 295.600 168.000 295.600 165.600 L 295.600 163.200 291.920 163.200 C 289.058 163.200,288.347 163.307,288.720 163.680 M256.267 211.467 C 256.120 211.613,256.000 212.873,256.000 214.267 L 256.000 216.800 252.614 216.800 C 248.469 216.800,248.211 217.088,248.487 221.398 C 248.733 225.222,248.710 225.200,252.375 225.200 C 256.209 225.200,256.329 225.077,256.482 220.981 L 256.600 217.800 260.316 217.600 C 264.448 217.378,264.784 217.162,264.794 214.726 C 264.807 211.453,264.483 211.200,260.277 211.200 C 258.218 211.200,256.413 211.320,256.267 211.467 M152.217 267.700 C 152.130 267.975,151.981 274.185,151.886 281.500 L 151.713 294.800 167.257 294.800 L 182.800 294.800 182.800 291.600 C 182.800 289.840,182.755 288.362,182.700 288.315 C 182.645 288.269,177.380 288.134,171.000 288.015 L 159.400 287.800 159.183 277.600 C 159.063 271.990,158.928 267.355,158.883 267.300 C 158.555 266.904,152.351 267.276,152.217 267.700 " stroke="none" fill="#9ecafb" fill-rule="evenodd"></path><path id="path2" d="M184.496 74.876 C 184.443 103.848,184.535 127.636,184.700 127.738 C 184.971 127.906,184.970 91.422,184.696 41.200 C 184.639 30.750,184.549 45.904,184.496 74.876 M215.200 75.080 C 215.090 104.164,215.136 127.824,215.301 127.659 C 215.467 127.493,215.557 103.697,215.501 74.779 L 215.400 22.200 215.200 75.080 M89.831 64.500 C 89.459 66.320,89.290 69.339,89.592 68.778 C 89.898 68.210,90.386 63.600,90.141 63.600 C 90.072 63.600,89.932 64.005,89.831 64.500 M309.913 65.864 C 310.014 67.149,310.226 68.441,310.384 68.736 C 310.542 69.030,310.589 68.220,310.487 66.936 C 310.386 65.651,310.174 64.359,310.016 64.064 C 309.858 63.770,309.811 64.580,309.913 65.864 M88.991 104.800 C 88.991 122.510,89.040 129.755,89.100 120.900 C 89.160 112.045,89.160 97.555,89.100 88.700 C 89.040 79.845,88.991 87.090,88.991 104.800 M310.991 104.800 C 310.991 122.510,311.040 129.755,311.100 120.900 C 311.160 112.045,311.160 97.555,311.100 88.700 C 311.040 79.845,310.991 87.090,310.991 104.800 M97.543 141.518 C 97.416 153.567,97.324 155.151,96.700 156.104 C 96.088 157.037,96.000 158.256,96.000 165.786 L 96.000 174.400 108.193 174.400 L 120.386 174.400 120.493 164.700 L 120.600 155.000 136.000 155.000 L 151.400 155.000 151.256 168.319 C 151.122 180.609,151.166 181.699,151.818 182.419 C 152.495 183.168,153.163 183.200,168.267 183.200 L 184.011 183.200 183.905 196.700 L 183.800 210.200 168.226 210.305 C 154.374 210.398,152.571 210.483,151.919 211.073 C 151.241 211.686,151.194 212.452,151.293 221.168 L 151.400 230.600 154.979 230.717 C 160.059 230.882,159.599 229.050,159.606 249.149 C 159.609 258.747,159.753 266.822,159.926 267.094 C 160.159 267.461,163.087 267.614,171.420 267.694 L 182.600 267.800 182.708 277.200 L 182.816 286.600 184.041 287.300 C 185.583 288.182,239.438 288.402,240.310 287.530 C 240.782 287.058,240.642 243.308,240.157 239.300 L 239.951 237.600 228.675 237.594 C 222.474 237.591,217.196 237.456,216.947 237.294 C 216.632 237.089,216.450 233.136,216.347 224.200 L 216.200 211.400 231.933 211.295 C 244.872 211.209,247.767 211.090,248.233 210.624 C 248.700 210.157,248.800 207.682,248.800 196.629 L 248.800 183.200 260.000 183.200 L 271.200 183.200 271.200 179.574 C 271.200 173.850,269.412 174.400,288.014 174.400 L 304.000 174.400 304.000 165.786 C 304.000 158.256,303.912 157.037,303.300 156.104 C 302.676 155.151,302.584 153.567,302.457 141.518 L 302.314 128.000 275.757 128.000 C 254.779 128.000,249.200 128.105,249.198 128.500 C 249.170 136.448,248.271 154.234,247.885 154.480 C 247.032 155.022,216.629 154.869,216.080 154.320 C 215.778 154.018,215.599 152.500,215.599 150.220 C 215.598 148.229,215.480 144.035,215.336 140.900 L 215.076 135.200 195.584 135.200 L 176.093 135.200 175.852 134.300 C 175.719 133.805,175.608 132.185,175.605 130.700 L 175.600 128.000 136.643 128.000 L 97.686 128.000 97.543 141.518 M88.336 137.638 C 88.192 137.988,87.991 140.058,87.891 142.238 C 87.790 144.417,87.778 145.390,87.863 144.400 C 87.947 143.410,88.204 142.231,88.434 141.779 C 88.663 141.328,88.794 140.068,88.725 138.979 C 88.654 137.859,88.486 137.277,88.336 137.638 M311.212 139.220 C 311.205 140.441,311.370 141.611,311.577 141.820 C 311.784 142.029,312.030 143.100,312.122 144.200 C 312.214 145.300,312.207 144.400,312.107 142.200 C 311.905 137.772,311.232 135.531,311.212 139.220 M87.289 164.476 C 87.240 174.308,87.335 182.436,87.500 182.539 C 87.773 182.707,87.767 169.361,87.488 153.000 C 87.428 149.480,87.339 154.644,87.289 164.476 M312.400 164.680 C 312.290 174.624,312.337 182.623,312.504 182.456 C 312.672 182.289,312.761 174.152,312.704 164.376 L 312.600 146.600 312.400 164.680 M297.357 162.633 C 297.491 162.981,297.600 164.316,297.600 165.600 C 297.600 169.340,297.810 169.200,292.200 169.200 C 288.088 169.200,287.246 169.097,287.043 168.567 C 286.714 167.710,286.733 162.600,287.067 162.267 C 287.692 161.641,297.105 161.976,297.357 162.633 M95.900 183.099 C 100.135 183.164,107.065 183.164,111.300 183.099 C 115.535 183.035,112.070 182.982,103.600 182.982 C 95.130 182.982,91.665 183.035,95.900 183.099 M280.402 183.398 C 280.091 183.773,280.014 184.406,280.196 185.098 C 280.355 185.704,280.624 187.550,280.793 189.200 L 281.101 192.200 280.979 189.000 C 280.912 187.240,280.799 185.260,280.729 184.600 L 280.600 183.400 296.200 183.193 L 311.800 182.986 296.349 182.893 C 283.051 182.813,280.829 182.883,280.402 183.398 M118.546 195.800 C 118.547 198.000,118.614 198.849,118.695 197.687 C 118.776 196.524,118.776 194.724,118.693 193.687 C 118.611 192.649,118.545 193.600,118.546 195.800 M281.373 202.000 C 281.373 207.390,281.430 209.595,281.499 206.900 C 281.568 204.205,281.568 199.795,281.499 197.100 C 281.430 194.405,281.373 196.610,281.373 202.000 M118.580 223.800 C 118.580 231.500,118.634 234.593,118.699 230.674 C 118.765 226.755,118.765 220.455,118.699 216.674 C 118.634 212.893,118.580 216.100,118.580 223.800 M281.246 237.420 C 281.221 237.871,281.021 238.457,280.801 238.721 C 280.582 238.986,280.690 238.953,281.040 238.649 C 281.390 238.344,281.590 237.758,281.485 237.347 C 281.312 236.674,281.288 236.681,281.246 237.420 M119.135 238.895 C 119.298 239.058,126.624 239.238,135.415 239.295 L 151.400 239.400 151.608 253.200 L 151.816 267.000 151.908 253.349 C 151.982 242.416,151.894 239.610,151.470 239.258 C 150.866 238.757,118.635 238.395,119.135 238.895 M248.144 239.801 C 248.017 240.132,247.985 252.637,248.072 267.591 C 248.205 290.356,248.142 294.813,247.683 294.990 C 247.381 295.105,233.694 295.225,217.267 295.255 C 200.840 295.285,179.390 295.430,169.600 295.576 C 159.810 295.723,173.490 295.764,200.000 295.667 C 228.944 295.561,248.492 295.340,248.932 295.114 C 249.572 294.785,249.635 294.381,249.435 291.869 C 248.705 282.670,248.409 271.418,248.499 256.300 C 248.554 246.895,248.549 239.200,248.487 239.200 C 248.426 239.200,248.271 239.470,248.144 239.801 M232.600 263.200 L 232.600 267.000 228.900 267.115 L 225.200 267.230 225.200 269.935 C 225.200 273.511,225.077 273.600,220.120 273.600 L 216.000 273.600 216.000 270.643 C 216.000 267.109,215.866 267.200,221.033 267.200 L 224.800 267.200 224.800 263.680 C 224.800 261.419,224.977 259.983,225.294 259.666 C 225.629 259.331,226.888 259.208,229.194 259.286 L 232.600 259.400 232.600 263.200 M151.357 272.400 C 151.357 275.370,151.420 276.585,151.497 275.100 C 151.574 273.615,151.574 271.185,151.497 269.700 C 151.420 268.215,151.357 269.430,151.357 272.400 M214.800 270.000 L 214.800 272.800 210.987 272.800 L 207.174 272.800 207.287 277.300 L 207.400 281.800 211.439 281.913 C 217.503 282.083,217.600 282.015,217.600 277.610 L 217.600 274.000 221.600 274.000 L 225.600 274.000 225.600 271.000 L 225.600 268.000 229.600 268.000 C 232.000 268.000,233.600 267.840,233.600 267.600 C 233.600 267.367,234.933 267.200,236.800 267.200 L 240.000 267.200 240.000 277.000 L 240.000 286.800 212.400 286.800 L 184.800 286.800 184.802 282.100 C 184.803 279.515,184.920 275.105,185.063 272.300 L 185.323 267.200 200.062 267.200 L 214.800 267.200 214.800 270.000 M216.000 276.951 C 216.000 281.161,215.884 281.269,211.539 281.117 L 208.200 281.000 208.085 277.300 L 207.970 273.600 211.985 273.600 L 216.000 273.600 216.000 276.951 M150.721 283.200 C 150.569 286.170,150.328 289.737,150.186 291.126 C 149.872 294.178,150.167 295.604,151.108 295.588 C 151.759 295.576,151.759 295.552,151.100 295.168 C 150.292 294.697,150.086 290.134,150.812 288.778 C 151.052 288.330,151.176 285.874,151.110 282.904 L 150.997 277.800 150.721 283.200 " stroke="none" fill="#32497c" fill-rule="evenodd"></path><path id="path3" d="M90.578 41.400 C 90.579 48.440,90.633 51.264,90.699 47.675 C 90.766 44.086,90.766 38.326,90.699 34.875 C 90.633 31.424,90.578 34.360,90.578 41.400 M309.378 41.400 C 309.379 48.440,309.433 51.264,309.499 47.675 C 309.566 44.086,309.566 38.326,309.499 34.875 C 309.433 31.424,309.378 34.360,309.378 41.400 M99.196 57.100 C 99.192 66.364,98.715 74.358,97.973 77.600 C 97.721 78.704,97.447 93.156,97.264 115.000 C 97.018 144.375,96.867 150.775,96.405 151.600 C 95.974 152.368,95.805 155.187,95.673 163.758 L 95.501 174.916 112.050 174.758 L 128.600 174.600 128.715 178.300 L 128.830 182.000 139.753 182.000 C 149.827 182.000,150.727 182.057,151.338 182.731 C 152.316 183.812,152.347 209.996,151.371 210.971 C 150.830 211.512,149.200 211.600,139.671 211.603 L 128.600 211.606 128.082 212.703 C 127.740 213.428,127.482 216.616,127.320 222.100 L 127.075 230.400 138.837 230.414 C 148.281 230.426,150.797 230.541,151.600 231.000 C 152.241 231.367,153.804 231.577,155.958 231.586 L 159.316 231.600 159.112 248.930 C 158.945 263.180,159.005 266.393,159.454 267.007 C 159.879 267.588,160.000 269.863,160.000 277.276 L 160.000 286.800 171.167 286.800 C 177.309 286.800,182.664 286.907,183.067 287.038 C 183.558 287.197,183.637 287.158,183.308 286.919 C 182.947 286.658,182.786 284.044,182.708 277.181 L 182.600 267.800 171.420 267.694 C 163.087 267.614,160.159 267.461,159.926 267.094 C 159.753 266.822,159.609 258.747,159.606 249.149 C 159.599 229.050,160.059 230.882,154.979 230.717 L 151.400 230.600 151.293 221.168 C 151.194 212.452,151.241 211.686,151.919 211.073 C 152.571 210.483,154.374 210.398,168.226 210.305 L 183.800 210.200 183.905 196.700 L 184.011 183.200 168.267 183.200 C 153.163 183.200,152.495 183.168,151.818 182.419 C 151.166 181.699,151.122 180.609,151.256 168.319 L 151.400 155.000 136.000 155.000 L 120.600 155.000 120.493 164.700 L 120.386 174.400 108.193 174.400 L 96.000 174.400 96.000 165.786 C 96.000 158.256,96.088 157.037,96.700 156.104 C 97.324 155.151,97.416 153.567,97.543 141.518 L 97.686 128.000 136.643 128.000 L 175.600 128.000 175.605 130.700 C 175.608 132.185,175.719 133.805,175.852 134.300 L 176.093 135.200 195.584 135.200 L 215.076 135.200 215.336 140.900 C 215.480 144.035,215.598 148.229,215.599 150.220 C 215.599 152.500,215.778 154.018,216.080 154.320 C 216.629 154.869,247.032 155.022,247.885 154.480 C 248.271 154.234,249.170 136.448,249.198 128.500 C 249.200 128.105,254.779 128.000,275.757 128.000 L 302.314 128.000 302.457 141.518 C 302.584 153.567,302.676 155.151,303.300 156.104 C 303.912 157.037,304.000 158.256,304.000 165.786 L 304.000 174.400 288.014 174.400 C 269.421 174.400,271.162 173.873,271.265 179.474 L 271.329 183.000 271.571 179.281 C 271.886 174.435,270.436 174.813,288.749 174.806 L 304.497 174.800 304.327 163.700 C 304.195 155.177,304.025 152.368,303.595 151.600 C 303.133 150.775,302.982 144.375,302.736 115.000 C 302.553 93.156,302.279 78.704,302.027 77.600 C 301.285 74.358,300.808 66.364,300.804 57.100 L 300.800 48.000 270.387 48.000 C 243.723 48.000,239.947 48.074,239.745 48.600 C 239.401 49.495,230.995 49.478,230.493 48.581 C 230.219 48.091,229.529 47.987,227.173 48.081 L 224.200 48.200 224.098 91.500 C 224.018 125.700,223.892 134.812,223.498 134.856 C 221.112 135.126,176.914 134.640,176.600 134.341 C 176.341 134.094,176.130 118.882,176.000 91.080 L 175.800 48.200 149.418 48.097 C 126.254 48.007,122.994 48.068,122.698 48.597 C 122.434 49.068,121.532 49.200,118.580 49.200 L 114.800 49.200 114.800 52.153 C 114.800 55.599,114.813 55.589,110.200 55.589 C 105.490 55.589,105.600 55.685,105.600 51.553 L 105.600 48.000 102.400 48.000 L 99.200 48.000 99.196 57.100 M90.553 59.000 C 90.553 61.640,90.618 62.668,90.697 61.284 C 90.775 59.901,90.774 57.741,90.695 56.484 C 90.616 55.228,90.552 56.360,90.553 59.000 M309.353 59.000 C 309.353 61.640,309.418 62.668,309.497 61.284 C 309.575 59.901,309.574 57.741,309.495 56.484 C 309.416 55.228,309.352 56.360,309.353 59.000 M90.114 66.200 C 90.117 67.300,90.195 67.703,90.287 67.095 C 90.379 66.486,90.377 65.586,90.282 65.095 C 90.187 64.603,90.111 65.100,90.114 66.200 M309.714 66.200 C 309.717 67.300,309.795 67.703,309.887 67.095 C 309.979 66.486,309.977 65.586,309.882 65.095 C 309.787 64.603,309.711 65.100,309.714 66.200 M89.320 71.200 C 89.320 72.410,89.395 72.905,89.487 72.300 C 89.578 71.695,89.578 70.705,89.487 70.100 C 89.395 69.495,89.320 69.990,89.320 71.200 M310.520 71.200 C 310.520 72.410,310.595 72.905,310.687 72.300 C 310.778 71.695,310.778 70.705,310.687 70.100 C 310.595 69.495,310.520 69.990,310.520 71.200 M184.131 124.600 C 184.133 126.140,184.205 126.721,184.292 125.891 C 184.379 125.061,184.377 123.801,184.289 123.091 C 184.200 122.381,184.129 123.060,184.131 124.600 M215.731 124.600 C 215.733 126.140,215.805 126.721,215.892 125.891 C 215.979 125.061,215.977 123.801,215.889 123.091 C 215.800 122.381,215.729 123.060,215.731 124.600 M87.731 149.000 C 87.733 150.540,87.805 151.121,87.892 150.291 C 87.979 149.461,87.977 148.201,87.889 147.491 C 87.800 146.781,87.729 147.460,87.731 149.000 M312.131 149.000 C 312.133 150.540,312.205 151.121,312.292 150.291 C 312.379 149.461,312.377 148.201,312.289 147.491 C 312.200 146.781,312.129 147.460,312.131 149.000 M287.067 162.267 C 286.733 162.600,286.714 167.710,287.043 168.567 C 287.200 168.977,287.728 169.181,288.543 169.146 C 289.434 169.107,289.546 169.042,288.929 168.922 C 287.502 168.644,287.152 167.840,287.280 165.135 L 287.400 162.600 291.968 162.486 C 297.212 162.356,297.188 162.341,297.188 165.600 C 297.188 168.169,296.955 168.653,295.600 168.905 C 294.727 169.067,294.760 169.098,295.857 169.146 C 297.375 169.211,297.600 168.754,297.600 165.600 C 297.600 161.861,297.807 162.000,292.224 162.000 C 289.534 162.000,287.213 162.120,287.067 162.267 M87.945 182.505 C 88.112 182.673,95.079 182.762,103.425 182.705 L 118.600 182.600 103.120 182.400 C 94.606 182.290,87.777 182.337,87.945 182.505 M296.800 182.400 L 281.400 182.614 296.676 182.707 C 306.531 182.767,312.041 182.658,312.200 182.400 C 312.336 182.180,312.392 182.042,312.324 182.093 C 312.256 182.144,305.270 182.282,296.800 182.400 M248.800 196.629 C 248.800 207.682,248.700 210.157,248.233 210.624 C 247.767 211.090,244.872 211.209,231.933 211.295 L 216.200 211.400 216.347 224.200 C 216.450 233.136,216.632 237.089,216.947 237.294 C 217.196 237.456,222.485 237.591,228.700 237.594 L 240.000 237.600 240.000 234.243 C 240.000 230.289,239.869 230.400,244.537 230.400 L 247.808 230.400 247.808 221.057 C 247.808 209.837,247.577 210.400,252.173 210.400 C 254.432 210.400,255.688 210.218,256.224 209.813 C 257.266 209.024,262.628 209.015,264.000 209.800 C 264.619 210.154,266.164 210.377,268.055 210.386 C 271.791 210.403,271.441 212.005,271.265 195.700 L 271.131 183.200 259.965 183.200 L 248.800 183.200 248.800 196.629 M240.202 239.600 C 240.659 243.443,240.758 287.082,240.310 287.530 C 239.609 288.231,185.164 288.204,184.462 287.502 C 184.187 287.227,184.254 287.587,184.612 288.304 L 185.261 289.605 213.131 289.503 L 241.000 289.400 240.884 264.437 C 240.819 250.250,240.610 239.199,240.402 238.837 C 240.144 238.389,240.084 238.615,240.202 239.600 M225.294 259.666 C 224.977 259.983,224.800 261.419,224.800 263.680 L 224.800 267.200 221.033 267.200 C 215.866 267.200,216.000 267.109,216.000 270.643 L 216.000 273.600 211.985 273.600 L 207.970 273.600 208.085 277.300 L 208.200 281.000 211.539 281.117 C 215.884 281.269,216.000 281.161,216.000 276.951 L 216.000 273.600 220.120 273.600 C 225.077 273.600,225.200 273.511,225.200 269.935 L 225.200 267.230 228.900 267.115 L 232.600 267.000 232.600 263.200 L 232.600 259.400 229.194 259.286 C 226.888 259.208,225.629 259.331,225.294 259.666 M232.200 263.200 L 232.200 266.600 228.900 266.716 L 225.600 266.832 225.600 263.200 L 225.600 259.568 228.900 259.684 L 232.200 259.800 232.200 263.200 M224.400 270.200 L 224.400 272.800 220.600 272.800 L 216.800 272.800 216.800 270.433 C 216.800 267.636,216.742 267.673,221.100 267.632 L 224.400 267.600 224.400 270.200 M247.724 275.800 C 247.726 277.120,247.801 277.612,247.890 276.893 C 247.979 276.174,247.977 275.094,247.886 274.493 C 247.795 273.892,247.722 274.480,247.724 275.800 M215.116 277.300 L 215.000 280.600 211.700 280.716 L 208.400 280.832 208.400 277.416 L 208.400 274.000 211.816 274.000 L 215.232 274.000 215.116 277.300 M247.859 280.500 C 247.720 281.655,247.605 285.255,247.603 288.500 L 247.600 294.400 216.500 294.428 C 199.395 294.444,185.040 294.611,184.600 294.800 C 184.144 294.996,197.492 295.153,215.600 295.166 C 233.090 295.178,247.607 295.056,247.859 294.894 C 248.214 294.667,248.506 278.402,248.156 278.400 C 248.131 278.400,247.998 279.345,247.859 280.500 " stroke="none" fill="#445c92" fill-rule="evenodd"></path><path id="path4" d="M74.400 7.776 C 74.400 12.529,74.244 15.649,74.000 15.800 C 73.780 15.936,73.600 16.847,73.600 17.824 C 73.600 18.801,73.420 19.600,73.200 19.600 C 72.937 19.600,72.800 29.933,72.800 49.800 C 72.800 69.667,72.663 80.000,72.400 80.000 C 72.180 80.000,72.000 80.810,72.000 81.800 C 72.000 82.790,71.820 83.600,71.600 83.600 C 71.337 83.600,71.200 93.925,71.200 113.776 C 71.200 133.463,71.061 144.039,70.800 144.200 C 70.580 144.336,70.400 145.146,70.400 146.000 C 70.400 146.854,70.220 147.664,70.000 147.800 C 69.098 148.358,69.492 202.047,70.400 202.284 C 71.173 202.486,71.200 202.830,71.200 212.433 C 71.200 221.962,71.233 222.389,72.000 222.800 C 72.766 223.210,72.800 223.638,72.800 232.918 C 72.800 242.174,72.836 242.630,73.600 243.107 C 74.364 243.585,74.400 244.040,74.400 253.361 C 74.400 261.421,74.499 263.152,74.969 263.333 C 75.433 263.511,75.561 265.345,75.669 273.404 C 75.787 282.290,75.869 283.295,76.500 283.648 C 77.082 283.974,77.200 284.619,77.200 287.476 C 77.200 292.301,76.173 291.972,91.300 291.987 L 104.000 292.000 104.000 301.538 C 104.000 310.568,104.043 311.115,104.800 311.800 C 105.568 312.495,105.600 313.032,105.600 325.208 C 105.600 337.286,105.638 337.941,106.400 338.909 C 107.040 339.723,107.200 340.532,107.200 342.963 L 107.200 346.000 121.200 346.000 L 135.200 346.000 135.200 362.400 C 135.200 373.067,135.340 378.800,135.600 378.800 C 135.820 378.800,136.000 379.239,136.000 379.776 C 136.000 380.313,136.180 380.864,136.400 381.000 C 136.648 381.153,136.800 384.804,136.800 390.624 L 136.800 400.000 200.000 400.000 L 263.200 400.000 263.200 390.624 C 263.200 384.804,263.352 381.153,263.600 381.000 C 263.820 380.864,264.000 380.313,264.000 379.776 C 264.000 379.239,264.180 378.800,264.400 378.800 C 264.660 378.800,264.800 373.067,264.800 362.400 L 264.800 346.000 278.800 346.000 L 292.800 346.000 292.800 342.963 C 292.800 340.532,292.960 339.723,293.600 338.909 C 294.362 337.941,294.400 337.286,294.400 325.208 C 294.400 313.032,294.432 312.495,295.200 311.800 C 295.957 311.115,296.000 310.568,296.000 301.538 L 296.000 292.000 308.700 291.987 C 323.827 291.972,322.800 292.301,322.800 287.476 C 322.800 284.619,322.918 283.974,323.500 283.648 C 324.131 283.295,324.213 282.290,324.331 273.404 C 324.439 265.345,324.567 263.511,325.031 263.333 C 325.501 263.152,325.600 261.421,325.600 253.361 C 325.600 244.040,325.636 243.585,326.400 243.107 C 327.164 242.630,327.200 242.174,327.200 232.918 C 327.200 223.638,327.234 223.210,328.000 222.800 C 328.767 222.389,328.800 221.962,328.800 212.433 C 328.800 202.830,328.827 202.486,329.600 202.284 C 330.508 202.047,330.902 148.358,330.000 147.800 C 329.780 147.664,329.600 146.854,329.600 146.000 C 329.600 145.146,329.420 144.336,329.200 144.200 C 328.939 144.039,328.800 133.463,328.800 113.776 C 328.800 93.925,328.663 83.600,328.400 83.600 C 328.180 83.600,328.000 82.790,328.000 81.800 C 328.000 80.810,327.820 80.000,327.600 80.000 C 327.337 80.000,327.200 69.667,327.200 49.800 C 327.200 29.933,327.063 19.600,326.800 19.600 C 326.580 19.600,326.400 18.801,326.400 17.824 C 326.400 16.847,326.220 15.936,326.000 15.800 C 325.756 15.649,325.600 12.529,325.600 7.776 L 325.600 0.000 200.000 0.000 L 74.400 0.000 74.400 7.776 M184.653 21.795 C 184.779 22.122,184.908 46.017,184.941 74.895 L 185.000 127.400 200.000 127.400 L 215.000 127.400 215.059 74.895 C 215.092 46.017,215.221 22.122,215.347 21.795 C 215.582 21.182,307.789 20.837,309.367 21.443 C 309.933 21.660,310.000 23.872,310.000 42.311 C 310.000 61.394,310.052 62.995,310.700 63.710 C 311.354 64.433,311.408 66.862,311.522 100.534 C 311.634 133.764,311.696 136.644,312.322 137.334 C 313.125 138.222,313.610 181.630,312.830 182.800 C 312.488 183.313,310.196 183.417,297.104 183.513 L 281.779 183.627 281.937 210.752 C 282.052 230.656,281.972 238.105,281.636 238.734 C 281.180 239.585,281.074 239.592,265.088 239.695 L 249.000 239.800 249.075 258.729 C 249.118 269.637,249.307 277.857,249.521 278.129 C 250.485 279.352,250.478 294.684,249.513 296.491 L 248.600 298.200 248.400 323.000 C 248.230 344.083,248.110 347.950,247.600 348.800 C 247.103 349.628,246.977 352.280,246.868 364.197 C 246.784 373.412,246.586 378.775,246.319 379.097 C 245.989 379.496,236.373 379.600,200.000 379.600 C 163.627 379.600,154.011 379.496,153.681 379.097 C 153.414 378.775,153.216 373.412,153.132 364.197 C 153.023 352.280,152.897 349.628,152.400 348.800 C 151.890 347.950,151.770 344.083,151.600 323.000 L 151.400 298.200 150.500 296.677 C 149.321 294.682,149.091 278.967,150.224 277.833 C 150.769 277.288,150.858 274.850,150.924 258.505 L 151.000 239.800 134.912 239.695 C 118.942 239.592,118.820 239.585,118.366 238.736 C 118.031 238.111,117.949 230.600,118.060 210.754 L 118.212 183.627 102.891 183.513 C 89.804 183.417,87.512 183.313,87.170 182.800 C 86.391 181.632,86.875 138.222,87.677 137.336 C 88.299 136.648,88.363 133.729,88.477 100.536 C 88.592 66.863,88.646 64.432,89.300 63.710 C 89.948 62.995,90.000 61.393,90.000 42.302 C 90.000 26.168,90.109 21.623,90.500 21.465 C 91.936 20.885,184.429 21.210,184.653 21.795 M160.000 318.614 C 160.000 334.906,160.060 336.519,160.700 337.496 C 161.335 338.465,161.413 340.233,161.538 356.482 L 161.676 374.400 200.011 374.400 L 238.346 374.400 238.482 357.300 C 238.602 342.344,238.705 339.974,239.304 338.400 C 239.913 336.799,239.989 334.620,239.994 318.700 L 240.000 300.800 200.000 300.800 L 160.000 300.800 160.000 318.614 M184.244 302.706 C 184.821 303.088,185.181 306.933,184.718 307.761 C 184.424 308.285,183.578 308.400,180.004 308.400 L 175.648 308.400 175.524 309.900 L 175.400 311.400 171.459 311.515 C 167.110 311.642,166.400 311.371,166.400 309.584 C 166.400 307.296,166.570 307.200,170.643 307.200 L 174.400 307.200 174.400 305.033 C 174.400 303.674,174.586 302.791,174.900 302.665 C 175.693 302.345,183.752 302.381,184.244 302.706 M231.926 365.568 C 232.180 369.124,232.094 369.200,227.817 369.200 L 224.048 369.200 223.924 370.700 L 223.800 372.200 219.521 372.313 L 215.241 372.427 214.994 371.109 C 214.394 367.908,215.589 366.814,219.700 366.806 L 222.800 366.800 222.800 365.467 C 222.800 363.591,222.879 363.562,227.579 363.687 L 231.800 363.800 231.926 365.568 " stroke="none" fill="#050607" fill-rule="evenodd"></path><path id="path5" d="M90.480 21.680 C 90.119 22.041,90.000 27.280,90.000 42.800 C 90.000 54.946,89.847 63.596,89.629 63.820 C 89.425 64.029,89.165 66.180,89.051 68.600 L 88.844 73.000 89.469 68.400 C 89.935 64.979,90.160 58.418,90.347 42.800 L 90.600 21.800 137.157 21.698 C 171.229 21.624,183.860 21.718,184.257 22.047 C 184.595 22.328,184.800 22.345,184.800 22.092 C 184.800 21.868,184.515 21.576,184.167 21.443 C 182.853 20.939,90.989 21.171,90.480 21.680 M215.700 21.465 C 215.425 21.576,215.200 21.854,215.200 22.082 C 215.200 22.353,215.390 22.340,215.743 22.047 C 216.140 21.718,228.771 21.624,262.843 21.698 L 309.400 21.800 309.653 42.800 C 309.840 58.418,310.065 64.979,310.531 68.400 L 311.156 73.000 310.949 68.600 C 310.835 66.180,310.575 64.029,310.371 63.820 C 310.153 63.596,310.000 54.946,310.000 42.800 C 310.000 27.280,309.881 22.041,309.520 21.680 C 309.038 21.198,216.885 20.987,215.700 21.465 M311.368 86.200 C 311.368 90.600,311.426 92.455,311.498 90.321 C 311.570 88.188,311.570 84.588,311.499 82.321 C 311.427 80.055,311.368 81.800,311.368 86.200 M88.567 86.400 C 88.567 90.690,88.626 92.445,88.698 90.300 C 88.770 88.155,88.770 84.645,88.698 82.500 C 88.626 80.355,88.567 82.110,88.567 86.400 M192.500 127.899 C 196.625 127.964,203.375 127.964,207.500 127.899 C 211.625 127.834,208.250 127.781,200.000 127.781 C 191.750 127.781,188.375 127.834,192.500 127.899 M88.528 134.800 C 88.528 136.230,88.601 136.815,88.689 136.100 C 88.778 135.385,88.778 134.215,88.689 133.500 C 88.601 132.785,88.528 133.370,88.528 134.800 M311.328 134.800 C 311.328 136.230,311.401 136.815,311.489 136.100 C 311.578 135.385,311.578 134.215,311.489 133.500 C 311.401 132.785,311.328 133.370,311.328 134.800 M87.856 137.909 C 87.752 138.078,87.584 140.103,87.484 142.409 C 87.384 144.714,87.378 145.880,87.472 145.000 C 88.305 137.128,88.302 137.187,87.856 137.909 M312.055 140.496 C 312.222 142.093,312.435 144.120,312.528 145.000 C 312.622 145.880,312.618 144.710,312.520 142.400 C 312.422 140.090,312.209 138.063,312.047 137.896 C 311.884 137.728,311.888 138.898,312.055 140.496 M118.548 187.700 L 118.497 192.200 118.825 189.000 C 119.006 187.240,119.209 185.278,119.277 184.639 C 119.345 184.001,119.220 183.416,119.000 183.339 C 118.751 183.253,118.581 184.896,118.548 187.700 M280.545 183.800 C 280.418 184.130,280.459 184.715,280.636 185.100 C 280.813 185.485,281.081 187.330,281.231 189.200 C 281.495 192.488,281.502 192.445,281.452 187.901 C 281.404 183.564,281.123 182.293,280.545 183.800 M118.162 204.200 C 118.162 207.720,118.224 209.106,118.298 207.281 C 118.372 205.456,118.372 202.576,118.297 200.881 C 118.222 199.186,118.161 200.680,118.162 204.200 M281.779 224.200 C 281.779 231.460,281.833 234.486,281.899 230.925 C 281.965 227.364,281.966 221.424,281.899 217.725 C 281.833 214.026,281.779 216.940,281.779 224.200 M280.958 238.802 C 280.723 239.037,274.249 239.232,264.585 239.295 L 248.600 239.400 248.501 256.400 C 248.412 271.532,248.727 283.392,249.439 291.778 C 249.792 295.934,252.063 295.600,223.424 295.600 C 209.771 295.601,188.205 295.720,175.500 295.866 L 152.400 296.131 152.400 317.586 C 152.400 330.467,152.551 339.192,152.777 339.420 C 153.617 340.267,154.000 347.371,154.000 362.090 L 154.000 377.600 200.000 377.600 L 246.000 377.600 246.000 362.090 C 246.000 347.371,246.383 340.267,247.223 339.420 C 247.449 339.192,247.600 330.459,247.600 317.563 L 247.600 296.087 248.594 295.837 C 249.847 295.523,250.145 294.389,249.830 291.126 C 249.164 284.219,248.876 274.545,248.840 257.900 L 248.800 239.600 264.976 239.600 C 276.002 239.600,281.237 239.464,281.416 239.173 C 281.775 238.593,281.439 238.321,280.958 238.802 M135.495 239.498 L 151.190 239.609 151.303 253.405 L 151.416 267.200 151.408 253.300 L 151.400 239.400 135.600 239.393 L 119.800 239.386 135.495 239.498 M185.063 272.300 C 184.920 275.105,184.803 279.515,184.802 282.100 L 184.800 286.800 212.400 286.800 L 240.000 286.800 240.000 277.000 L 240.000 267.200 236.800 267.200 C 234.933 267.200,233.600 267.367,233.600 267.600 C 233.600 267.840,232.000 268.000,229.600 268.000 L 225.600 268.000 225.600 271.000 L 225.600 274.000 221.600 274.000 L 217.600 274.000 217.600 277.610 C 217.600 282.015,217.503 282.083,211.439 281.913 L 207.400 281.800 207.287 277.300 L 207.174 272.800 210.987 272.800 L 214.800 272.800 214.800 270.000 L 214.800 267.200 200.062 267.200 L 185.323 267.200 185.063 272.300 M150.713 273.400 C 149.425 296.641,149.410 296.058,151.291 295.946 L 152.200 295.891 151.301 295.718 C 150.151 295.496,149.863 294.330,150.164 291.126 C 150.614 286.331,151.214 273.393,151.097 271.000 C 151.013 269.280,150.904 269.960,150.713 273.400 M240.786 298.774 C 241.523 300.151,241.343 349.970,240.600 350.255 C 240.086 350.453,239.999 352.153,239.995 362.143 C 239.992 368.554,239.881 374.205,239.748 374.700 L 239.507 375.600 200.000 375.600 L 160.493 375.600 160.252 374.700 C 160.119 374.205,160.008 368.554,160.005 362.143 C 160.001 352.153,159.914 350.453,159.400 350.255 C 158.657 349.970,158.477 300.151,159.214 298.774 C 159.619 298.017,160.495 298.000,200.000 298.000 C 239.505 298.000,240.381 298.017,240.786 298.774 M175.600 305.600 L 175.600 307.200 179.043 307.200 C 182.018 307.200,182.453 307.114,182.243 306.567 C 182.109 306.219,182.000 305.499,182.000 304.967 C 182.000 304.025,181.918 304.000,178.800 304.000 L 175.600 304.000 175.600 305.600 M168.000 309.200 C 168.000 309.933,168.267 310.000,171.200 310.000 C 174.133 310.000,174.400 309.933,174.400 309.200 C 174.400 308.467,174.133 308.400,171.200 308.400 C 168.267 308.400,168.000 308.467,168.000 309.200 M224.000 365.600 C 224.000 366.333,224.267 366.400,227.200 366.400 C 230.133 366.400,230.400 366.333,230.400 365.600 C 230.400 364.867,230.133 364.800,227.200 364.800 C 224.267 364.800,224.000 364.867,224.000 365.600 M216.400 370.400 C 216.400 371.133,216.667 371.200,219.600 371.200 C 222.533 371.200,222.800 371.133,222.800 370.400 C 222.800 369.667,222.533 369.600,219.600 369.600 C 216.667 369.600,216.400 369.667,216.400 370.400 " stroke="none" fill="#1c2c3c" fill-rule="evenodd"></path><path id="path6" d="M114.331 21.900 C 127.163 21.959,148.043 21.959,160.731 21.900 C 173.419 21.841,162.920 21.793,137.400 21.793 C 111.880 21.793,101.499 21.841,114.331 21.900 M239.531 21.900 C 252.363 21.959,273.243 21.959,285.931 21.900 C 298.619 21.841,288.120 21.793,262.600 21.793 C 237.080 21.793,226.699 21.841,239.531 21.900 M90.540 25.600 C 90.540 27.470,90.609 28.235,90.693 27.300 C 90.777 26.365,90.777 24.835,90.693 23.900 C 90.609 22.965,90.540 23.730,90.540 25.600 M309.340 25.600 C 309.340 27.470,309.409 28.235,309.493 27.300 C 309.577 26.365,309.577 24.835,309.493 23.900 C 309.409 22.965,309.340 23.730,309.340 25.600 M184.193 75.200 C 184.193 101.050,184.241 111.625,184.300 98.700 C 184.358 85.775,184.358 64.625,184.300 51.700 C 184.241 38.775,184.193 49.350,184.193 75.200 M215.793 75.200 C 215.793 101.050,215.841 111.625,215.900 98.700 C 215.958 85.775,215.958 64.625,215.900 51.700 C 215.841 38.775,215.793 49.350,215.793 75.200 M223.370 134.390 C 223.162 134.598,221.284 134.827,219.196 134.901 L 215.400 135.034 219.200 135.111 C 222.613 135.180,224.554 134.820,223.962 134.228 C 223.843 134.110,223.577 134.183,223.370 134.390 M124.200 174.770 L 128.200 175.000 128.301 178.000 C 128.357 179.650,128.495 181.405,128.609 181.900 L 128.815 182.800 139.728 182.800 C 147.682 182.800,150.770 182.930,151.120 183.280 C 151.807 183.967,151.807 209.633,151.120 210.320 C 150.770 210.670,147.700 210.800,139.809 210.800 C 126.549 210.800,127.168 210.577,127.271 215.323 L 127.341 218.600 127.599 216.000 C 127.740 214.570,128.000 212.995,128.175 212.500 L 128.493 211.600 139.618 211.600 C 149.198 211.600,150.830 211.513,151.371 210.971 C 152.406 209.937,152.310 183.605,151.269 182.662 C 150.626 182.080,149.221 182.000,139.684 182.000 L 128.830 182.000 128.715 178.300 L 128.600 174.600 124.400 174.570 L 120.200 174.540 124.200 174.770 M119.300 184.338 C 119.245 185.142,119.133 187.330,119.051 189.200 L 118.902 192.600 119.223 189.400 C 119.400 187.640,119.665 185.546,119.811 184.747 C 119.957 183.948,119.924 183.200,119.738 183.085 C 119.552 182.970,119.355 183.534,119.300 184.338 M271.310 195.600 C 271.293 202.530,271.261 208.695,271.240 209.300 L 271.200 210.400 268.100 210.386 C 266.170 210.377,264.623 210.156,264.000 209.800 C 262.628 209.015,257.266 209.024,256.224 209.813 C 255.688 210.218,254.432 210.400,252.173 210.400 C 247.577 210.400,247.808 209.837,247.808 221.057 L 247.808 230.400 244.537 230.400 C 239.797 230.400,239.987 230.216,240.077 234.743 L 240.153 238.600 240.377 234.800 L 240.600 231.000 244.431 230.886 L 248.262 230.773 248.232 221.400 C 248.193 209.346,246.704 210.647,260.574 210.621 C 273.194 210.597,272.590 210.777,272.208 207.142 C 272.060 205.744,271.805 199.740,271.641 193.800 L 271.342 183.000 271.310 195.600 M279.842 184.800 C 279.964 185.570,280.208 187.460,280.385 189.000 L 280.707 191.800 280.604 189.000 C 280.547 187.460,280.302 185.570,280.061 184.800 L 279.622 183.400 279.842 184.800 M280.940 195.600 C 280.940 197.470,281.009 198.235,281.093 197.300 C 281.177 196.365,281.177 194.835,281.093 193.900 C 281.009 192.965,280.940 193.730,280.940 195.600 M118.557 204.800 C 118.557 207.770,118.620 208.985,118.697 207.500 C 118.774 206.015,118.774 203.585,118.697 202.100 C 118.620 200.615,118.557 201.830,118.557 204.800 M281.378 224.200 C 281.379 231.240,281.433 234.064,281.499 230.475 C 281.566 226.886,281.566 221.126,281.499 217.675 C 281.433 214.224,281.378 217.160,281.378 224.200 M126.982 225.099 L 127.000 230.600 138.800 230.609 L 150.600 230.618 138.911 230.503 L 127.222 230.388 127.094 224.994 L 126.965 219.599 126.982 225.099 M127.100 238.700 C 131.555 238.764,138.845 238.764,143.300 238.700 C 147.755 238.635,144.110 238.582,135.200 238.582 C 126.290 238.582,122.645 238.635,127.100 238.700 M248.261 239.100 C 248.092 239.373,260.013 239.367,274.800 239.087 C 277.990 239.026,273.366 238.937,264.524 238.888 C 255.682 238.840,248.364 238.935,248.261 239.100 M159.789 277.300 L 159.800 287.000 171.639 287.200 C 181.114 287.360,183.631 287.515,184.239 287.978 C 184.974 288.537,184.976 288.530,184.286 287.778 C 183.615 287.047,182.868 286.993,171.793 286.883 L 160.014 286.766 159.896 277.183 L 159.778 267.600 159.789 277.300 M151.357 283.200 C 151.357 286.170,151.420 287.385,151.497 285.900 C 151.574 284.415,151.574 281.985,151.497 280.500 C 151.420 279.015,151.357 280.230,151.357 283.200 M150.567 289.342 C 150.107 290.542,150.590 294.934,151.200 295.099 C 151.679 295.228,151.692 295.185,151.265 294.885 C 150.880 294.615,150.768 293.709,150.865 291.654 C 151.001 288.773,150.947 288.352,150.567 289.342 M159.500 295.499 C 163.735 295.564,170.665 295.564,174.900 295.499 C 179.135 295.435,175.670 295.382,167.200 295.382 C 158.730 295.382,155.265 295.435,159.500 295.499 " stroke="none" fill="#546494" fill-rule="evenodd"></path><path id="path7" d="M90.881 25.498 L 90.963 29.000 91.098 25.700 L 91.232 22.400 137.599 22.400 L 183.966 22.400 184.108 25.300 L 184.250 28.200 184.225 25.200 L 184.200 22.200 137.500 22.098 L 90.800 21.997 90.881 25.498 M215.768 22.540 C 215.654 22.837,215.624 24.322,215.702 25.840 L 215.843 28.600 215.922 25.500 L 216.000 22.400 262.384 22.400 L 308.768 22.400 308.902 25.700 L 309.037 29.000 309.119 25.500 L 309.200 22.000 262.587 22.000 C 223.838 22.000,215.940 22.091,215.768 22.540 M118.300 28.300 C 128.915 28.359,146.285 28.359,156.900 28.300 C 167.515 28.241,158.830 28.192,137.600 28.192 C 116.370 28.192,107.685 28.241,118.300 28.300 M243.100 28.300 C 253.715 28.359,271.085 28.359,281.700 28.300 C 292.315 28.241,283.630 28.192,262.400 28.192 C 241.170 28.192,232.485 28.241,243.100 28.300 M192.073 128.299 C 196.404 128.364,203.604 128.364,208.073 128.300 C 212.543 128.235,209.000 128.182,200.200 128.182 C 191.400 128.182,187.743 128.235,192.073 128.299 M200.200 134.400 L 185.000 134.614 200.000 134.679 C 208.250 134.715,215.360 134.589,215.800 134.400 C 216.240 134.211,216.330 134.085,216.000 134.121 C 215.670 134.156,208.560 134.282,200.200 134.400 M128.146 193.444 C 128.114 200.107,127.935 204.601,127.691 204.903 C 127.275 205.418,126.810 211.210,127.187 211.187 C 128.744 211.094,128.800 210.581,128.800 196.480 C 128.800 188.982,128.665 182.765,128.500 182.664 C 128.335 182.564,128.176 187.415,128.146 193.444 M119.867 184.400 C 119.154 188.752,118.878 194.013,118.923 202.400 L 118.972 211.400 119.242 202.000 C 119.391 196.830,119.720 190.711,119.972 188.401 C 120.450 184.021,120.378 181.279,119.867 184.400 M272.140 186.800 C 272.140 188.670,272.209 189.435,272.293 188.500 C 272.377 187.565,272.377 186.035,272.293 185.100 C 272.209 184.165,272.140 184.930,272.140 186.800 M280.531 195.400 C 280.533 196.940,280.605 197.521,280.692 196.691 C 280.779 195.861,280.777 194.601,280.689 193.891 C 280.600 193.181,280.529 193.860,280.531 195.400 M272.931 201.400 C 272.933 202.940,273.005 203.521,273.092 202.691 C 273.179 201.861,273.177 200.601,273.089 199.891 C 273.000 199.181,272.929 199.860,272.931 201.400 M273.200 209.754 C 273.200 210.059,272.769 210.590,272.243 210.935 C 271.115 211.674,271.116 218.142,272.244 219.044 C 272.670 219.384,272.800 220.768,272.800 224.944 L 272.800 230.400 260.824 230.400 C 252.111 230.400,248.768 230.528,248.558 230.868 C 248.361 231.187,248.491 231.251,248.967 231.068 C 249.351 230.921,254.973 230.800,261.459 230.800 L 273.254 230.800 273.201 220.900 C 273.172 215.455,273.271 210.595,273.421 210.100 C 273.571 209.605,273.582 209.200,273.447 209.200 C 273.311 209.200,273.200 209.449,273.200 209.754 M256.300 210.832 C 255.748 211.154,255.600 211.785,255.600 213.820 L 255.600 216.400 252.214 216.400 C 248.132 216.400,248.000 216.544,248.000 221.000 C 248.000 225.543,248.059 225.600,252.762 225.600 L 256.695 225.600 256.914 224.251 C 257.035 223.508,257.035 221.815,256.914 220.487 L 256.696 218.074 261.163 217.937 C 266.317 217.779,266.444 217.694,266.334 214.467 C 266.216 211.027,259.896 208.738,256.300 210.832 M280.797 224.000 L 280.600 237.800 264.533 238.000 C 255.696 238.110,248.331 238.335,248.166 238.500 C 248.001 238.665,255.273 238.800,264.326 238.800 L 280.785 238.800 281.004 237.900 C 281.125 237.405,281.172 230.970,281.109 223.600 L 280.994 210.200 280.797 224.000 M264.410 212.226 C 264.904 213.525,264.904 216.016,264.410 216.800 C 264.135 217.236,263.019 217.455,260.316 217.600 L 256.600 217.800 256.482 220.981 C 256.329 225.077,256.209 225.200,252.375 225.200 C 248.710 225.200,248.733 225.222,248.487 221.398 C 248.211 217.088,248.469 216.800,252.614 216.800 L 256.000 216.800 256.000 214.267 C 256.000 211.078,255.830 211.200,260.277 211.200 C 263.927 211.200,264.030 211.226,264.410 212.226 " stroke="none" fill="#94a4a4" fill-rule="evenodd"></path><path id="path8" d="M184.934 25.200 C 184.934 26.850,185.005 27.525,185.091 26.700 C 185.178 25.875,185.178 24.525,185.091 23.700 C 185.005 22.875,184.934 23.550,184.934 25.200 M214.934 25.200 C 214.934 26.850,215.005 27.525,215.091 26.700 C 215.178 25.875,215.178 24.525,215.091 23.700 C 215.005 22.875,214.934 23.550,214.934 25.200 M89.226 63.769 C 88.952 64.099,88.817 65.150,88.905 66.269 L 89.056 68.200 89.128 66.180 C 89.168 65.069,89.416 63.944,89.680 63.680 C 89.944 63.416,90.056 63.200,89.929 63.200 C 89.802 63.200,89.485 63.456,89.226 63.769 M310.274 63.610 C 310.535 63.946,310.818 65.116,310.902 66.210 L 311.056 68.200 311.128 66.149 C 311.182 64.611,311.025 63.961,310.500 63.549 C 309.888 63.069,309.860 63.077,310.274 63.610 M311.355 73.400 C 311.356 76.260,311.420 77.378,311.497 75.883 C 311.574 74.389,311.574 72.049,311.496 70.683 C 311.418 69.318,311.355 70.540,311.355 73.400 M88.555 73.800 C 88.556 76.660,88.620 77.778,88.697 76.283 C 88.774 74.789,88.774 72.449,88.696 71.083 C 88.618 69.718,88.555 70.940,88.555 73.800 M88.585 113.200 C 88.585 123.870,88.637 128.235,88.700 122.900 C 88.763 117.565,88.763 108.835,88.700 103.500 C 88.637 98.165,88.585 102.530,88.585 113.200 M311.385 113.200 C 311.385 123.870,311.437 128.235,311.500 122.900 C 311.563 117.565,311.563 108.835,311.500 103.500 C 311.437 98.165,311.385 102.530,311.385 113.200 M87.673 137.287 C 87.402 137.558,87.231 138.709,87.272 139.980 L 87.344 142.200 87.498 140.210 C 87.582 139.116,87.845 137.986,88.083 137.700 C 88.643 137.025,88.291 136.669,87.673 137.287 M311.600 137.071 C 311.600 137.274,311.769 137.611,311.976 137.820 C 312.183 138.029,312.420 139.100,312.504 140.200 L 312.656 142.200 312.728 139.949 C 312.779 138.366,312.622 137.550,312.200 137.200 C 311.870 136.926,311.600 136.868,311.600 137.071 M86.986 162.600 C 86.986 173.600,87.037 178.042,87.100 172.472 C 87.163 166.902,87.162 157.902,87.100 152.472 C 87.037 147.042,86.985 151.600,86.986 162.600 M312.986 162.600 C 312.986 173.600,313.037 178.042,313.100 172.472 C 313.163 166.902,313.162 157.902,313.100 152.472 C 313.037 147.042,312.985 151.600,312.986 162.600 M103.273 183.497 C 117.204 183.601,118.358 183.662,118.512 184.305 C 118.637 184.826,118.669 184.799,118.639 184.200 C 118.601 183.415,118.318 183.400,103.400 183.393 L 88.200 183.385 103.273 183.497 M281.356 183.771 C 281.235 184.085,281.216 184.760,281.314 185.271 C 281.449 185.981,281.504 185.895,281.546 184.905 L 281.600 183.610 296.700 183.500 L 311.800 183.390 296.687 183.295 C 283.903 183.215,281.541 183.288,281.356 183.771 M118.140 194.800 C 118.140 196.670,118.209 197.435,118.293 196.500 C 118.377 195.565,118.377 194.035,118.293 193.100 C 118.209 192.165,118.140 192.930,118.140 194.800 M281.773 201.600 C 281.773 206.990,281.830 209.195,281.899 206.500 C 281.968 203.805,281.968 199.395,281.899 196.700 C 281.830 194.005,281.773 196.210,281.773 201.600 M118.180 224.400 C 118.180 232.210,118.234 235.405,118.299 231.500 C 118.365 227.595,118.365 221.205,118.299 217.300 C 118.234 213.395,118.180 216.590,118.180 224.400 M150.893 267.600 C 150.893 268.370,150.975 268.685,151.076 268.300 C 151.176 267.915,151.176 267.285,151.076 266.900 C 150.975 266.515,150.893 266.830,150.893 267.600 M249.105 277.600 C 249.204 283.430,249.445 288.503,249.642 288.874 C 250.801 291.055,249.781 296.000,248.171 296.000 C 247.683 296.000,247.600 299.136,247.600 317.520 C 247.600 330.443,247.450 339.192,247.223 339.420 C 246.383 340.267,246.000 347.371,246.000 362.090 L 246.000 377.600 200.000 377.600 L 154.000 377.600 154.000 362.090 C 154.000 347.371,153.617 340.267,152.777 339.420 C 152.550 339.192,152.400 330.443,152.400 317.520 L 152.400 296.000 151.420 296.000 C 150.881 296.000,150.256 295.685,150.032 295.300 C 149.808 294.915,149.619 294.725,149.612 294.877 C 149.605 295.030,150.005 295.840,150.500 296.677 L 151.400 298.200 151.600 323.000 C 151.770 344.083,151.890 347.950,152.400 348.800 C 152.897 349.628,153.023 352.280,153.132 364.197 C 153.216 373.412,153.414 378.775,153.681 379.097 C 154.293 379.835,245.707 379.835,246.319 379.097 C 246.586 378.775,246.784 373.412,246.868 364.197 C 246.977 352.280,247.103 349.628,247.600 348.800 C 248.110 347.950,248.230 344.083,248.400 323.000 L 248.600 298.200 249.516 296.486 C 250.485 294.671,250.528 280.277,249.570 278.200 C 249.368 277.760,249.140 275.060,249.064 272.200 C 248.988 269.340,249.007 271.770,249.105 277.600 M149.843 278.233 C 149.709 278.581,149.635 281.236,149.678 284.133 L 149.756 289.400 149.978 284.000 C 150.100 281.030,150.346 278.375,150.524 278.100 C 150.703 277.824,150.677 277.600,150.466 277.600 C 150.257 277.600,149.976 277.885,149.843 278.233 M159.214 298.774 C 158.477 300.151,158.657 349.970,159.400 350.255 C 159.914 350.453,160.001 352.153,160.005 362.143 C 160.008 368.554,160.119 374.205,160.252 374.700 L 160.493 375.600 200.000 375.600 L 239.507 375.600 239.748 374.700 C 239.881 374.205,239.992 368.554,239.995 362.143 C 239.999 352.153,240.086 350.453,240.600 350.255 C 241.343 349.970,241.523 300.151,240.786 298.774 C 240.381 298.017,239.505 298.000,200.000 298.000 C 160.495 298.000,159.619 298.017,159.214 298.774 M239.994 318.700 C 239.989 334.620,239.913 336.799,239.304 338.400 C 238.705 339.974,238.602 342.344,238.482 357.300 L 238.346 374.400 200.011 374.400 L 161.676 374.400 161.538 356.482 C 161.413 340.233,161.335 338.465,160.700 337.496 C 160.060 336.519,160.000 334.906,160.000 318.614 L 160.000 300.800 200.000 300.800 L 240.000 300.800 239.994 318.700 M174.900 302.665 C 174.586 302.791,174.400 303.674,174.400 305.033 L 174.400 307.200 170.643 307.200 C 166.570 307.200,166.400 307.296,166.400 309.584 C 166.400 311.371,167.110 311.642,171.459 311.515 L 175.400 311.400 175.524 309.900 L 175.648 308.400 180.004 308.400 C 183.578 308.400,184.424 308.285,184.718 307.761 C 185.181 306.933,184.821 303.088,184.244 302.706 C 183.752 302.381,175.693 302.345,174.900 302.665 M182.000 304.967 C 182.000 305.499,182.109 306.219,182.243 306.567 C 182.453 307.114,182.018 307.200,179.043 307.200 L 175.600 307.200 175.600 305.600 L 175.600 304.000 178.800 304.000 C 181.918 304.000,182.000 304.025,182.000 304.967 M174.400 309.200 C 174.400 309.933,174.133 310.000,171.200 310.000 C 168.267 310.000,168.000 309.933,168.000 309.200 C 168.000 308.467,168.267 308.400,171.200 308.400 C 174.133 308.400,174.400 308.467,174.400 309.200 M223.079 363.854 C 222.926 364.008,222.800 364.733,222.800 365.467 L 222.800 366.800 219.700 366.806 C 215.589 366.814,214.394 367.908,214.994 371.109 L 215.241 372.427 219.521 372.313 L 223.800 372.200 223.924 370.700 L 224.048 369.200 227.817 369.200 C 232.094 369.200,232.180 369.124,231.926 365.568 L 231.800 363.800 227.579 363.687 C 225.258 363.625,223.233 363.700,223.079 363.854 M230.400 365.600 C 230.400 366.333,230.133 366.400,227.200 366.400 C 224.267 366.400,224.000 366.333,224.000 365.600 C 224.000 364.867,224.267 364.800,227.200 364.800 C 230.133 364.800,230.400 364.867,230.400 365.600 M222.800 370.400 C 222.800 371.133,222.533 371.200,219.600 371.200 C 216.667 371.200,216.400 371.133,216.400 370.400 C 216.400 369.667,216.667 369.600,219.600 369.600 C 222.533 369.600,222.800 369.667,222.800 370.400 " stroke="none" fill="#1c243c" fill-rule="evenodd"></path></g></svg>